<svg
    xmlns="http://www.w3.org/2000/svg"
    width="20"
    height="21"
    viewBox="0 0 20 21"
    fill="none"
  >
    <path
      fillRule="evenodd"
      clipRule="evenodd"
      d="M11.8592 2.2689L13.0744 1.05365C13.3673 0.760761 13.8422 0.760761 14.1351 1.05365C14.428 1.34655 14.428 1.82142 14.1351 2.11431L13.0219 3.22746C13.5428 3.87142 13.8547 4.69129 13.8547 5.58401V6.13685C14.6202 6.72422 15.2701 7.48264 15.7672 8.36088L17.0744 7.05368C17.3673 6.76079 17.8422 6.76079 18.1351 7.05368C18.428 7.34658 18.428 7.82145 18.1351 8.11435L16.6351 9.61435C16.5648 9.68457 16.4842 9.73796 16.398 9.77451C16.6181 10.425 16.7635 11.1164 16.8235 11.834H19.1047C19.5189 11.834 19.8547 12.1698 19.8547 12.584C19.8547 12.9982 19.5189 13.334 19.1047 13.334H16.8231C16.7625 14.049 16.6164 14.7404 16.3953 15.3924C16.4824 15.4289 16.5641 15.4827 16.6351 15.5537L18.1351 17.0537C18.428 17.3466 18.428 17.8215 18.1351 18.1143C17.8422 18.4072 17.3673 18.4072 17.0744 18.1143L15.7651 16.8051C14.5788 18.9063 12.524 20.334 10.1047 20.334C7.68552 20.334 5.63072 18.9063 4.44434 16.8051L3.13507 18.1143C2.84217 18.4072 2.3673 18.4072 2.07441 18.1143C1.78151 17.8215 1.78151 17.3466 2.07441 17.0537L3.57441 15.5537C3.64538 15.4827 3.72703 15.4289 3.81419 15.3924C3.59312 14.7404 3.44694 14.049 3.38639 13.334H1.10474C0.690523 13.334 0.354736 12.9982 0.354736 12.584C0.354736 12.1698 0.690523 11.834 1.10474 11.834H3.38597C3.44601 11.1164 3.5914 10.425 3.81145 9.77451C3.72532 9.73796 3.64463 9.68457 3.57441 9.61435L2.07441 8.11435C1.78151 7.82145 1.78151 7.34658 2.07441 7.05368C2.3673 6.76079 2.84217 6.76079 3.13507 7.05368L4.44226 8.36088C4.93939 7.48264 5.58929 6.72422 6.35474 6.13685V5.58401C6.35474 4.69129 6.66669 3.87142 7.18753 3.22746L6.07441 2.11435C5.78151 1.82145 5.78151 1.34658 6.07441 1.05368C6.3673 0.760792 6.84217 0.760792 7.13507 1.05368L8.35028 2.2689C8.87378 1.99127 9.47089 1.83401 10.1047 1.83401C10.7386 1.83401 11.3357 1.99127 11.8592 2.2689ZM7.85474 5.83401H12.3547V5.58401C12.3547 4.34137 11.3474 3.33401 10.1047 3.33401C8.8621 3.33401 7.85474 4.34137 7.85474 5.58401V5.83401ZM7.25865 7.33401C5.8333 8.4334 4.85474 10.3549 4.85474 12.584C4.85474 15.8254 6.88476 18.34 9.35474 18.7692V7.33401H7.25865ZM10.8547 7.33401V18.7692C13.3247 18.34 15.3547 15.8254 15.3547 12.584C15.3547 10.3549 14.3762 8.4334 12.9508 7.33401H10.8547Z"
      fill="#838383"
    />
  </svg>