<svg
    xmlns="http://www.w3.org/2000/svg"
    width="20"
    height="18"
    viewBox="0 0 20 18"
    fill="none"
  >
    <path
      fillRule="evenodd"
      clipRule="evenodd"
      d="M14.6351 7.2442C14.928 6.9513 14.928 6.47643 14.6351 6.18354C14.3422 5.89064 13.8673 5.89064 13.5744 6.18354L11.4456 8.31234C11.0489 8.09039 10.5916 7.96387 10.1047 7.96387C8.58595 7.96387 7.35474 9.19508 7.35474 10.7139C7.35474 12.2326 8.58595 13.4639 10.1047 13.4639C11.6235 13.4639 12.8547 12.2326 12.8547 10.7139C12.8547 10.227 12.7282 9.76969 12.5063 9.37301L14.6351 7.2442ZM8.85474 10.7139C8.85474 10.0235 9.41438 9.46387 10.1047 9.46387C10.7951 9.46387 11.3547 10.0235 11.3547 10.7139C11.3547 11.4042 10.7951 11.9639 10.1047 11.9639C9.41438 11.9639 8.85474 11.4042 8.85474 10.7139Z"
      fill="#838383"
    />
    <path
      fillRule="evenodd"
      clipRule="evenodd"
      d="M10.1047 2.46387C5.54839 2.46387 1.85474 6.15752 1.85474 10.7139C1.85474 12.9951 2.77965 15.0589 4.27675 16.5531C4.56992 16.8457 4.57038 17.3206 4.27777 17.6138C3.98515 17.907 3.51028 17.9074 3.21711 17.6148C1.44962 15.8507 0.354736 13.4094 0.354736 10.7139C0.354736 5.32909 4.71996 0.963867 10.1047 0.963867C15.4895 0.963867 19.8547 5.32909 19.8547 10.7139C19.8547 13.406 18.7626 15.8446 16.999 17.6082C16.7061 17.9011 16.2313 17.9011 15.9384 17.6082C15.6455 17.3153 15.6455 16.8404 15.9384 16.5475C17.4321 15.0537 18.3547 12.9922 18.3547 10.7139C18.3547 6.15752 14.6611 2.46387 10.1047 2.46387Z"
      fill="#838383"
    />
  </svg>