<svg xmlns="http://www.w3.org/2000/svg" width="21" height="20" viewBox="0 0 21 20" fill="none">
<path fill-rule="evenodd" clip-rule="evenodd" d="M3.10474 19.9639C1.44788 19.9639 0.104736 18.6208 0.104736 16.9639V9.3C0.104736 8.44954 0.465701 7.63904 1.09784 7.07012L8.09784 0.770118C9.23876 -0.256705 10.9707 -0.256707 12.1116 0.770117L19.1116 7.07012C19.7438 7.63904 20.1047 8.44954 20.1047 9.3V16.9639C20.1047 18.6208 18.7616 19.9639 17.1047 19.9639H3.10474ZM18.6047 9.3V16.9639C18.6047 17.7923 17.9332 18.4639 17.1047 18.4639H14.1047V12.9639C14.1047 11.3071 12.7616 9.96391 11.1047 9.96391H9.10474C7.44788 9.96391 6.10474 11.3071 6.10474 12.9639V18.4639H3.10474C2.27631 18.4639 1.60474 17.7923 1.60474 16.9639V9.3C1.60474 8.87477 1.78522 8.46952 2.10129 8.18506L9.10129 1.88506C9.67175 1.37165 10.5377 1.37165 11.1082 1.88506L18.1082 8.18506C18.4243 8.46952 18.6047 8.87477 18.6047 9.3ZM7.60474 18.4639V12.9639C7.60474 12.1355 8.27631 11.4639 9.10474 11.4639H11.1047C11.9332 11.4639 12.6047 12.1355 12.6047 12.9639V18.4639H7.60474Z" fill="#838383"/>
</svg>