<svg
    xmlns="http://www.w3.org/2000/svg"
    width="19"
    height="19"
    viewBox="0 0 19 19"
    fill="none"
  >
    <path
      fillRule="evenodd"
      clipRule="evenodd"
      d="M5.10474 1.83398H3.10474C2.27631 1.83398 1.60474 2.50556 1.60474 3.33398V5.33398C1.60474 6.16241 2.27631 6.83398 3.10474 6.83398H5.10474C5.93316 6.83398 6.60474 6.16241 6.60474 5.33398V3.33398C6.60474 2.50556 5.93316 1.83398 5.10474 1.83398ZM3.10474 0.333984C1.44788 0.333984 0.104736 1.67713 0.104736 3.33398V5.33398C0.104736 6.99084 1.44788 8.33398 3.10474 8.33398H5.10474C6.76159 8.33398 8.10474 6.99084 8.10474 5.33398V3.33398C8.10474 1.67713 6.76159 0.333984 5.10474 0.333984H3.10474Z"
      fill="#5B80FF"
    />
    <path
      fillRule="evenodd"
      clipRule="evenodd"
      d="M5.10474 11.834H3.10474C2.27631 11.834 1.60474 12.5056 1.60474 13.334V15.334C1.60474 16.1624 2.27631 16.834 3.10474 16.834H5.10474C5.93316 16.834 6.60474 16.1624 6.60474 15.334V13.334C6.60474 12.5056 5.93316 11.834 5.10474 11.834ZM3.10474 10.334C1.44788 10.334 0.104736 11.6771 0.104736 13.334V15.334C0.104736 16.9908 1.44788 18.334 3.10474 18.334H5.10474C6.76159 18.334 8.10474 16.9908 8.10474 15.334V13.334C8.10474 11.6771 6.76159 10.334 5.10474 10.334H3.10474Z"
      fill="#5B80FF"
    />
    <path
      fillRule="evenodd"
      clipRule="evenodd"
      d="M15.1047 1.83398H13.1047C12.2763 1.83398 11.6047 2.50556 11.6047 3.33398V5.33398C11.6047 6.16241 12.2763 6.83398 13.1047 6.83398H15.1047C15.9332 6.83398 16.6047 6.16241 16.6047 5.33398V3.33398C16.6047 2.50556 15.9332 1.83398 15.1047 1.83398ZM13.1047 0.333984C11.4479 0.333984 10.1047 1.67713 10.1047 3.33398V5.33398C10.1047 6.99084 11.4479 8.33398 13.1047 8.33398H15.1047C16.7616 8.33398 18.1047 6.99084 18.1047 5.33398V3.33398C18.1047 1.67713 16.7616 0.333984 15.1047 0.333984H13.1047Z"
      fill="#5B80FF"
    />
    <path
      fillRule="evenodd"
      clipRule="evenodd"
      d="M15.1047 11.834H13.1047C12.2763 11.834 11.6047 12.5056 11.6047 13.334V15.334C11.6047 16.1624 12.2763 16.834 13.1047 16.834H15.1047C15.9332 16.834 16.6047 16.1624 16.6047 15.334V13.334C16.6047 12.5056 15.9332 11.834 15.1047 11.834ZM13.1047 10.334C11.4479 10.334 10.1047 11.6771 10.1047 13.334V15.334C10.1047 16.9908 11.4479 18.334 13.1047 18.334H15.1047C16.7616 18.334 18.1047 16.9908 18.1047 15.334V13.334C18.1047 11.6771 16.7616 10.334 15.1047 10.334H13.1047Z"
      fill="#5B80FF"
    />
  </svg>