<svg xmlns="http://www.w3.org/2000/svg" width="20" height="19" viewBox="0 0 20 19" fill="none">
<path d="M16.1572 12.0965C16.2428 12.2298 16.3667 12.3339 16.5095 12.4024C17.6011 12.9265 18.3547 14.0422 18.3547 15.334V17.334C18.3547 17.7482 18.6905 18.084 19.1047 18.084C19.519 18.084 19.8547 17.7482 19.8547 17.334V15.334C19.8547 12.7106 17.7281 10.584 15.1047 10.584C14.9961 10.584 14.9471 10.7242 15.0293 10.7953C15.4645 11.172 15.845 11.6103 16.1572 12.0965Z" fill="#838383"/>
<path fill-rule="evenodd" clip-rule="evenodd" d="M5.10474 12.084C3.30981 12.084 1.85474 13.5391 1.85474 15.334V17.334C1.85474 17.7482 1.51895 18.084 1.10474 18.084C0.690523 18.084 0.354736 17.7482 0.354736 17.334V15.334C0.354736 12.7106 2.48138 10.584 5.10474 10.584H11.1047C13.7281 10.584 15.8547 12.7106 15.8547 15.334V17.334C15.8547 17.7482 15.5189 18.084 15.1047 18.084C14.6905 18.084 14.3547 17.7482 14.3547 17.334V15.334C14.3547 13.5391 12.8997 12.084 11.1047 12.084H5.10474Z" fill="#838383"/>
<path d="M12.9752 6.89146C13.0641 6.72238 13.2055 6.58734 13.3702 6.49049C14.1089 6.05607 14.6047 5.25293 14.6047 4.33398C14.6047 3.41504 14.1089 2.6119 13.3702 2.17748C13.2055 2.08063 13.0641 1.94559 12.9752 1.77651C12.7266 1.30409 12.4113 0.87225 12.0418 0.493522C11.9841 0.434359 12.022 0.333984 12.1047 0.333984C14.3138 0.333984 16.1047 2.12485 16.1047 4.33398C16.1047 6.54312 14.3138 8.33398 12.1047 8.33398C12.022 8.33398 11.9841 8.23361 12.0418 8.17445C12.4113 7.79572 12.7266 7.36388 12.9752 6.89146Z" fill="#838383"/>
<path fill-rule="evenodd" clip-rule="evenodd" d="M8.10474 6.83398C9.48545 6.83398 10.6047 5.7147 10.6047 4.33398C10.6047 2.95327 9.48545 1.83398 8.10474 1.83398C6.72402 1.83398 5.60474 2.95327 5.60474 4.33398C5.60474 5.7147 6.72402 6.83398 8.10474 6.83398ZM8.10474 8.33398C10.3139 8.33398 12.1047 6.54312 12.1047 4.33398C12.1047 2.12485 10.3139 0.333984 8.10474 0.333984C5.8956 0.333984 4.10474 2.12485 4.10474 4.33398C4.10474 6.54312 5.8956 8.33398 8.10474 8.33398Z" fill="#838383"/>
</svg>