<svg xmlns="http://www.w3.org/2000/svg" width="21" height="23" viewBox="0 0 21 23" fill="none">
<path fill-rule="evenodd" clip-rule="evenodd" d="M10.1047 13.584C11.4854 13.584 12.6047 12.4647 12.6047 11.084C12.6047 9.70327 11.4854 8.58398 10.1047 8.58398C8.72402 8.58398 7.60474 9.70327 7.60474 11.084C7.60474 12.4647 8.72402 13.584 10.1047 13.584ZM14.1047 11.084C14.1047 13.2931 12.3139 15.084 10.1047 15.084C7.8956 15.084 6.10474 13.2931 6.10474 11.084C6.10474 8.87485 7.8956 7.08398 10.1047 7.08398C12.3139 7.08398 14.1047 8.87485 14.1047 11.084Z" fill="#838383"/>
<path fill-rule="evenodd" clip-rule="evenodd" d="M9.00945 1.92587L8.62189 3.08853C8.29511 4.06889 7.57802 4.76335 6.82686 5.18161C6.7628 5.21727 6.69939 5.25396 6.63662 5.29164C5.89796 5.73507 4.93664 6.00966 3.92302 5.80224L2.72125 5.55632C2.5104 5.51317 2.2956 5.60978 2.18799 5.79616L1.56701 6.87174C1.4594 7.05812 1.48313 7.29245 1.62592 7.45347L2.44095 8.37259C3.125 9.144 3.36996 10.1108 3.35631 10.9722C3.35513 11.0467 3.35513 11.1213 3.35631 11.1958C3.36995 12.0572 3.12499 13.0239 2.44095 13.7953L1.62592 14.7144C1.48313 14.8755 1.4594 15.1098 1.56701 15.2962L2.18799 16.3717C2.2956 16.5581 2.5104 16.6547 2.72125 16.6116L3.92294 16.3657C4.93657 16.1583 5.8979 16.4329 6.63657 16.8763C6.69935 16.914 6.76279 16.9507 6.82686 16.9864C7.57802 17.4046 8.29511 18.0991 8.62189 19.0794L9.00945 20.2421C9.0775 20.4463 9.26857 20.584 9.48379 20.584H10.7258C10.941 20.584 11.132 20.4463 11.2001 20.2421L11.5876 19.0794C11.9144 18.0991 12.6315 17.4046 13.3827 16.9864C13.4467 16.9507 13.5102 16.914 13.573 16.8763C14.3116 16.4329 15.273 16.1583 16.2866 16.3657L17.4882 16.6116C17.6991 16.6547 17.9139 16.5581 18.0215 16.3717L18.6425 15.2962C18.7501 15.1098 18.7264 14.8755 18.5836 14.7144L17.7686 13.7954C17.0845 13.024 16.8396 12.0572 16.8532 11.1958C16.8544 11.1213 16.8544 11.0467 16.8532 10.9721C16.8396 10.1107 17.0845 9.14395 17.7686 8.37253L18.5836 7.45347C18.7264 7.29245 18.7501 7.05812 18.6425 6.87174L18.0215 5.79617C17.9139 5.60978 17.6991 5.51317 17.4882 5.55632L16.2865 5.80223C15.2729 6.00966 14.3116 5.73506 13.5729 5.29163C13.5101 5.25395 13.4467 5.21727 13.3827 5.18161C12.6315 4.76335 11.9144 4.06889 11.5876 3.08853L11.2001 1.92587C11.132 1.7217 10.941 1.58398 10.7258 1.58398H9.48379C9.26857 1.58398 9.0775 1.7217 9.00945 1.92587ZM7.19887 2.61419C7.01662 3.16092 6.60065 3.59071 6.09714 3.87107C6.01882 3.91468 5.94129 3.95952 5.86457 4.00558C5.36987 4.30256 4.78902 4.44837 4.22374 4.33269L3.02197 4.08677C2.17858 3.91418 1.31938 4.30064 0.888954 5.04616L0.267973 6.12174C-0.162457 6.86726 -0.0675375 7.80458 0.503618 8.44868L1.31865 9.36779C1.70056 9.79848 1.86562 10.3728 1.8565 10.9484C1.85506 11.0387 1.85506 11.1292 1.85649 11.2195C1.86561 11.7951 1.70056 12.3694 1.31864 12.8001L0.503619 13.7192C-0.0675365 14.3633 -0.162457 15.3006 0.267973 16.0462L0.888954 17.1217C1.31938 17.8673 2.17858 18.2537 3.02197 18.0811L4.22366 17.8352C4.78894 17.7195 5.36981 17.8654 5.86451 18.1623C5.94125 18.2084 6.0188 18.2533 6.09714 18.2969C6.60065 18.5773 7.01662 19.007 7.19887 19.5538L7.58642 20.7164C7.85865 21.5331 8.62293 22.084 9.48379 22.084H10.7258C11.5866 22.084 12.3509 21.5331 12.6231 20.7164L13.0107 19.5538C13.1929 19.007 13.6089 18.5773 14.1124 18.2969C14.1907 18.2533 14.2683 18.2084 14.345 18.1624C14.8397 17.8654 15.4206 17.7196 15.9859 17.8352L17.1875 18.0811C18.0309 18.2537 18.8901 17.8673 19.3205 17.1217L19.9415 16.0462C20.3719 15.3006 20.277 14.3633 19.7059 13.7192L18.8909 12.8002C18.509 12.3695 18.3439 11.7951 18.353 11.2196C18.3545 11.1292 18.3545 11.0387 18.353 10.9484C18.3439 10.3728 18.509 9.79843 18.8909 9.36774L19.7059 8.44868C20.277 7.80458 20.3719 6.86727 19.9415 6.12174L19.3205 5.04617C18.8901 4.30064 18.0309 3.91419 17.1875 4.08677L15.9858 4.33269C15.4205 4.44836 14.8397 4.30255 14.345 4.00557C14.2682 3.95952 14.1907 3.91468 14.1124 3.87107C13.6089 3.59071 13.1929 3.16092 13.0107 2.61419L12.6231 1.45153C12.3509 0.634844 11.5866 0.0839844 10.7258 0.0839844H9.48379C8.62293 0.0839844 7.85865 0.634845 7.58642 1.45153L7.19887 2.61419Z" fill="#838383"/>
</svg>