<svg width="40" height="41" viewBox="0 0 40 41" fill="none" xmlns="http://www.w3.org/2000/svg">
<path d="M31.6667 15.5C31.6667 9.05668 26.4434 3.83335 20 3.83335C13.5567 3.83335 8.33337 9.05668 8.33337 15.5C8.33337 17.8117 9.01671 19.9617 10.175 21.775H10.1617C14.095 27.9333 20 37.1667 20 37.1667L29.8384 21.775H29.8267C30.9834 19.9617 31.6667 17.8117 31.6667 15.5ZM20 20.5C17.2384 20.5 15 18.2617 15 15.5C15 12.7383 17.2384 10.5 20 10.5C22.7617 10.5 25 12.7383 25 15.5C25 18.2617 22.7617 20.5 20 20.5Z" fill="#E4D9D9"/>
</svg>
