<svg width="24" height="24" viewBox="0 0 24 24" fill="none" xmlns="http://www.w3.org/2000/svg">
<path d="M12 17C12.2449 17 12.4813 17.09 12.6644 17.2527C12.8474 17.4155 12.9643 17.6397 12.993 17.883L13 18V19C12.9997 19.2549 12.9021 19.5 12.7271 19.6854C12.5522 19.8707 12.313 19.9822 12.0586 19.9972C11.8042 20.0121 11.5536 19.9293 11.3582 19.7657C11.1627 19.6021 11.0371 19.3701 11.007 19.117L11 19V18C11 17.7348 11.1053 17.4804 11.2929 17.2929C11.4804 17.1054 11.7348 17 12 17ZM18.313 14.91L18.407 14.993L19.107 15.693C19.2863 15.873 19.3905 16.1144 19.3982 16.3684C19.406 16.6223 19.3168 16.8697 19.1487 17.0603C18.9807 17.2508 18.7464 17.3703 18.4935 17.3944C18.2406 17.4185 17.988 17.3454 17.787 17.19L17.693 17.107L16.993 16.407C16.8204 16.2347 16.7167 16.0054 16.7015 15.762C16.6862 15.5187 16.7603 15.2781 16.9099 15.0856C17.0596 14.8931 17.2744 14.7619 17.514 14.7166C17.7536 14.6714 18.0015 14.7153 18.211 14.84L18.313 14.91ZM7.00699 14.993C7.17917 15.1652 7.2826 15.3943 7.29788 15.6373C7.31316 15.8803 7.23924 16.1206 7.08999 16.313L7.00699 16.407L6.30699 17.107C6.12703 17.2863 5.88556 17.3905 5.63161 17.3982C5.37766 17.406 5.13028 17.3168 4.93971 17.1488C4.74915 16.9807 4.62969 16.7464 4.60559 16.4935C4.5815 16.2406 4.65458 15.988 4.80999 15.787L4.89299 15.693L5.59299 14.993C5.78052 14.8055 6.03483 14.7002 6.29999 14.7002C6.56516 14.7002 6.81946 14.8055 7.00699 14.993ZM3.99999 9C4.25487 9.00028 4.50002 9.09788 4.68536 9.27285C4.8707 9.44782 4.98223 9.68695 4.99716 9.94139C5.0121 10.1958 4.92932 10.4464 4.76573 10.6418C4.60214 10.8373 4.37009 10.9629 4.11699 10.993L3.99999 11H2.99999C2.74511 10.9997 2.49996 10.9021 2.31462 10.7272C2.12929 10.5522 2.01776 10.313 2.00282 10.0586C1.98788 9.80416 2.07067 9.55362 2.23426 9.35817C2.39785 9.16271 2.62989 9.0371 2.88299 9.007L2.99999 9H3.99999ZM21 9C21.2549 9.00028 21.5 9.09788 21.6854 9.27285C21.8707 9.44782 21.9822 9.68695 21.9972 9.94139C22.0121 10.1958 21.9293 10.4464 21.7657 10.6418C21.6021 10.8373 21.3701 10.9629 21.117 10.993L21 11H20C19.7451 10.9997 19.5 10.9021 19.3146 10.7272C19.1293 10.5522 19.0178 10.313 19.0028 10.0586C18.9879 9.80416 19.0707 9.55362 19.2343 9.35817C19.3978 9.16271 19.6299 9.0371 19.883 9.007L20 9H21ZM6.21299 2.81L6.30699 2.893L7.00699 3.593C7.18634 3.77296 7.29046 4.01443 7.29822 4.26838C7.30597 4.52233 7.21678 4.76971 7.04874 4.96028C6.88071 5.15084 6.64644 5.27031 6.39352 5.2944C6.14059 5.31849 5.88798 5.24541 5.68699 5.09L5.59299 5.007L4.89299 4.307C4.72108 4.13468 4.61792 3.90557 4.60286 3.66263C4.58779 3.41969 4.66185 3.17959 4.81115 2.98735C4.96046 2.79511 5.17475 2.66393 5.41386 2.61839C5.65297 2.57285 5.90048 2.61609 6.10999 2.74L6.21299 2.81ZM19.107 2.893C19.2792 3.06519 19.3826 3.29429 19.3979 3.53732C19.4132 3.78034 19.3392 4.0206 19.19 4.213L19.107 4.307L18.407 5.007C18.227 5.18635 17.9856 5.29047 17.7316 5.29823C17.4777 5.30598 17.2303 5.21678 17.0397 5.04875C16.8491 4.88072 16.7297 4.64645 16.7056 4.39353C16.6815 4.1406 16.7546 3.88799 16.91 3.687L16.993 3.593L17.693 2.893C17.8805 2.70553 18.1348 2.60021 18.4 2.60021C18.6652 2.60021 18.9195 2.70553 19.107 2.893ZM12 0C12.2449 3.23106e-05 12.4813 0.0899562 12.6644 0.252715C12.8474 0.415475 12.9643 0.639749 12.993 0.883L13 1V2C12.9997 2.25488 12.9021 2.50003 12.7271 2.68537C12.5522 2.8707 12.313 2.98223 12.0586 2.99717C11.8042 3.01211 11.5536 2.92933 11.3582 2.76574C11.1627 2.60214 11.0371 2.3701 11.007 2.117L11 2V1C11 0.734784 11.1053 0.48043 11.2929 0.292893C11.4804 0.105357 11.7348 0 12 0ZM12 5C12.9797 4.99994 13.9378 5.28769 14.7553 5.8275C15.5729 6.36731 16.2138 7.1354 16.5986 8.03636C16.9833 8.93733 17.0949 9.93147 16.9195 10.8953C16.744 11.8592 16.2893 12.7502 15.6118 13.4579C14.9343 14.1655 14.0638 14.6585 13.1085 14.8756C12.1532 15.0928 11.1552 15.0245 10.2383 14.6793C9.32149 14.334 8.52628 13.7271 7.95145 12.9338C7.37662 12.1405 7.04751 11.1958 7.00499 10.217L6.99999 10L7.00499 9.783C7.06091 8.49575 7.6116 7.27978 8.54221 6.38866C9.47283 5.49754 10.7115 5.00007 12 5Z" fill="#1736A4"/>
</svg>
