<svg width="22" height="71" viewBox="0 0 22 71" fill="none" xmlns="http://www.w3.org/2000/svg">
<path d="M14.7783 7.0802C14.7783 5.14087 13.2062 3.56873 11.2668 3.56873C9.32751 3.56873 7.75537 5.14087 7.75537 7.0802V49.8173C8.85369 49.4291 10.0356 49.2179 11.2668 49.2179C12.4981 49.2179 13.68 49.4291 14.7783 49.8173V45.7064H13.0226C12.0529 45.7064 11.2668 44.9204 11.2668 43.9507C11.2668 42.981 12.0529 42.195 13.0226 42.195H14.7783V38.6835H13.0226C12.0529 38.6835 11.2668 37.8974 11.2668 36.9277C11.2668 35.9581 12.0529 35.172 13.0226 35.172H14.7783V31.6605H13.0226C12.0529 31.6605 11.2668 30.8745 11.2668 29.9048C11.2668 28.9351 12.0529 28.1491 13.0226 28.1491H14.7783V24.6376H13.0226C12.0529 24.6376 11.2668 23.8515 11.2668 22.8818C11.2668 21.9122 12.0529 21.1261 13.0226 21.1261H14.7783V17.6146H13.0226C12.0529 17.6146 11.2668 16.8286 11.2668 15.8589C11.2668 14.8892 12.0529 14.1032 13.0226 14.1032H14.7783V10.5917H13.0226C12.0529 10.5917 11.2668 9.80561 11.2668 8.83594C11.2668 7.86627 12.0529 7.0802 13.0226 7.0802H14.7783ZM4.2439 51.9003V7.0802C4.2439 3.20153 7.38818 0.057251 11.2668 0.057251C15.1455 0.057251 18.2898 3.20153 18.2898 7.0802V51.9003C20.445 53.8292 21.8013 56.6324 21.8013 59.7523C21.8013 65.5703 17.0849 70.2868 11.2668 70.2868C5.44885 70.2868 0.732422 65.5703 0.732422 59.7523C0.732422 56.6324 2.08873 53.8292 4.2439 51.9003ZM7.02245 54.1566C5.33408 55.4392 4.2439 57.4685 4.2439 59.7523C4.2439 63.631 7.38818 66.7753 11.2668 66.7753C15.1455 66.7753 18.2898 63.631 18.2898 59.7523C18.2898 57.4685 17.1996 55.4392 15.5112 54.1566C15.4906 54.1418 15.4703 54.1265 15.4504 54.1109C14.2818 53.2429 12.8343 52.7294 11.2668 52.7294C9.69939 52.7294 8.25187 53.2429 7.08333 54.1109C7.06339 54.1265 7.04309 54.1418 7.02245 54.1566ZM11.2668 63.2638C9.32751 63.2638 7.75537 61.6917 7.75537 59.7523C7.75537 57.813 9.32751 56.2409 11.2668 56.2409C13.2062 56.2409 14.7783 57.813 14.7783 59.7523C14.7783 61.6917 13.2062 63.2638 11.2668 63.2638Z" fill="#EFE1E1"/>
</svg>
