<svg xmlns="http://www.w3.org/2000/svg" version="1.0" width="200.000000pt" height="200.000000pt" viewBox="0 0 200.000000 200.000000" preserveAspectRatio="xMidYMid meet">

<g transform="translate(0.000000,200.000000) scale(0.100000,-0.100000)" fill="#000000" stroke="none">
<path d="M1070 1078 c-95 -255 -181 -485 -191 -511 l-19 -48 71 3 71 3 189 504 c104 277 189 506 189 508 0 1 -31 3 -68 3 l-68 0 -174 -462z"/>
<path d="M674 1411 c-81 -37 -134 -128 -134 -230 l0 -41 -85 0 -85 0 0 -65 0 -65 85 0 85 0 0 -245 0 -245 65 0 65 0 0 245 0 245 115 0 116 0 -3 63 -3 62 -112 3 -113 3 0 42 c0 89 49 127 163 127 l67 0 0 60 0 60 -92 0 c-69 0 -104 -5 -134 -19z"/>
<path d="M1370 871 c0 -16 7 -48 15 -71 8 -24 14 -45 12 -46 -2 -2 -19 10 -39 26 -32 27 -87 55 -93 48 -10 -12 -36 -111 -30 -116 4 -4 38 -9 77 -12 l71 -5 -54 -40 c-30 -22 -55 -47 -56 -55 -2 -8 18 -29 44 -47 57 -39 66 -34 92 51 18 57 20 59 29 36 5 -14 13 -39 16 -56 4 -18 15 -39 24 -48 16 -14 22 -13 65 17 25 18 47 36 47 40 0 10 -44 53 -85 84 l-30 22 65 1 c91 1 96 5 75 71 -10 30 -19 55 -20 57 -6 7 -61 -21 -93 -48 -20 -16 -37 -28 -39 -26 -2 1 4 22 12 46 8 23 15 55 15 71 0 29 -1 29 -60 29 -59 0 -60 0 -60 -29z"/>
</g>
</svg>